<svg xmlns="http://www.w3.org/2000/svg" viewBox="0 0 83.88 78.93"><defs><style>.cls-1{opacity:0.36;}.cls-2,.cls-3,.cls-4{fill:none;stroke:#fff;stroke-miterlimit:10;stroke-width:2px;}.cls-3,.cls-4{stroke-linecap:round;}.cls-4{stroke-dasharray:0.51 5.05;}</style></defs><title>acupuntura-ico</title><g id="Camada_2" data-name="Camada 2"><g id="Camada_1-2" data-name="Camada 1"><g class="cls-1"><rect class="cls-2" x="6.95" y="6.53" width="8.29" height="27.66" rx="3.75"/><line class="cls-2" x1="11.09" y1="34.75" x2="11.09" y2="64.62"/><rect class="cls-2" x="21.33" y="9.85" width="8.29" height="27.66" rx="3.75"/><line class="cls-2" x1="25.48" y1="38.07" x2="25.48" y2="67.94"/><rect class="cls-2" x="35.72" y="6.53" width="8.29" height="27.66" rx="3.75"/><line class="cls-2" x1="39.86" y1="34.75" x2="39.86" y2="64.62"/><rect class="cls-2" x="50.1" y="3.21" width="8.29" height="27.66" rx="3.75"/><line class="cls-2" x1="54.25" y1="31.43" x2="54.25" y2="61.3"/><rect class="cls-2" x="64.49" y="1" width="8.29" height="27.66" rx="3.75"/><line class="cls-2" x1="68.63" y1="29.22" x2="68.63" y2="59.09"/><path class="cls-2" d="M1,65.73c1.11,0,17.7,10,39.83,5.53,30.27-6.05,42.05-5.53,42.05-5.53"/><path class="cls-3" d="M1,71.26a.81.81,0,0,1,.24.06"/><path class="cls-4" d="M5.89,73.28a61.62,61.62,0,0,0,34.94,3.51c22-4.4,34.23-5.32,39.28-5.5"/><path class="cls-3" d="M82.63,71.25h.25"/></g></g></g></svg>