<svg xmlns="http://www.w3.org/2000/svg" viewBox="0 0 439.17 382.63"><defs><style>.cls-1{isolation:isolate;}.cls-11,.cls-2{opacity:0.31;}.cls-3{fill:#fff;}.cls-21,.cls-4{fill:#579bcc;}.cls-4{opacity:0.5;}.cls-15,.cls-20,.cls-4,.cls-6,.cls-8{mix-blend-mode:multiply;}.cls-10,.cls-5,.cls-6{fill:#193157;}.cls-6{opacity:0.39;}.cls-20,.cls-7,.cls-8{fill:#38454d;}.cls-8{opacity:0.24;}.cls-9{fill:#90b4cc;}.cls-10{opacity:0.12;}.cls-11,.cls-19{fill:#a8a9ad;}.cls-12{fill:#fedbab;}.cls-13,.cls-17{fill:#f6976c;}.cls-13{opacity:0.27;}.cls-14,.cls-15{fill:#604b46;}.cls-15{opacity:0.13;}.cls-16{fill:#223c6d;}.cls-18{fill:#abd7f2;}.cls-20{opacity:0.1;}</style></defs><title>Ativo 7</title><g class="cls-1"><g id="Camada_2" data-name="Camada 2"><g id="Camada_1-2" data-name="Camada 1"><g class="cls-2"><path class="cls-3" d="M405.49,222.05a321.71,321.71,0,0,1-21.92,27.44Q372,262.6,359.64,274.92t-25.43,23.94a318.6,318.6,0,0,1-27.44,21.92,318.6,318.6,0,0,1,21.92-27.44q11.58-13.12,23.93-25.43T378.06,244A323.64,323.64,0,0,1,405.49,222.05Z"/><path class="cls-3" d="M345.67,188.38a92.3,92.3,0,0,0-35.58,7.13l-22.26-32.58a93.15,93.15,0,1,0-134.44,2.16L131,196.35a92.18,92.18,0,0,0-37.5-8H0v93.5c0,51.29,42.21,93.49,93.5,93.49S187,333.17,187,281.88a93,93,0,0,0-23.89-62.14l23.64-33a93.26,93.26,0,0,0,68.5-1.1l22.24,32.58a93.1,93.1,0,0,0-25.3,63.67c0,51.29,42.2,93.49,93.49,93.49s93.5-42.2,93.5-93.49v-93.5Zm-172.86,93.5A79.13,79.13,0,0,1,37.55,337.83a78.7,78.7,0,0,1-23.36-55.95V202.57H93.5a79.74,79.74,0,0,1,79.31,79.31Zm46.77-107.82a74.52,74.52,0,1,1,74.53-74.52A74.6,74.6,0,0,1,219.58,174.06ZM422.91,281.88a77.24,77.24,0,1,1-77.24-77.24h77.24Z"/><path class="cls-3" d="M94.45,348A49.49,49.49,0,0,1,68,346.65a58.35,58.35,0,0,1-37.39-37.38,49.28,49.28,0,0,1-1.36-26.44,101,101,0,0,0,8.57,23.45A78.17,78.17,0,0,0,71,339.47,101.22,101.22,0,0,0,94.45,348Z"/></g><ellipse class="cls-4" cx="310.18" cy="372.74" rx="77.3" ry="9.89"/><path class="cls-5" d="M350.23,362.3,353,372.35a2.71,2.71,0,0,1-2.61,3.42H320.78a2.7,2.7,0,0,1-2.58-3.52l3.8-12.11a2.71,2.71,0,0,1,2.82-1.89l23,2.07A2.7,2.7,0,0,1,350.23,362.3Z"/><path class="cls-6" d="M323.11,358.68l18.25,1.64a2.73,2.73,0,0,1,2.36,2l2.74,10.06a2.7,2.7,0,0,1-2.6,3.41h6.5a2.69,2.69,0,0,0,2.6-3.41l-2.74-10.06a2.71,2.71,0,0,0-2.36-2l-23-2.07A2.76,2.76,0,0,0,323.11,358.68Z"/><path class="cls-5" d="M308.4,360.48V371.7a2.42,2.42,0,0,1-2.33,2.42l-37.43,1.4c-2.25.08-3-2.36-1.73-4.2,4.37-6.2,13.72-12.62,13.72-12.62a2.41,2.41,0,0,1,1.64-.64H306A2.42,2.42,0,0,1,308.4,360.48Z"/><path class="cls-6" d="M267.54,375.32a2.32,2.32,0,0,0,1.11.2l37.43-1.4a2.43,2.43,0,0,0,2.33-2.42V360.48a2.42,2.42,0,0,0-2.43-2.42h-6.5a2.42,2.42,0,0,1,2.42,2.42V371.7a2.43,2.43,0,0,1-2.33,2.42Z"/><path class="cls-7" d="M359.43,250.8c-.25,6.4-3.23,78.52-7.07,109.35a4.4,4.4,0,0,1-3.64,3.81,81.79,81.79,0,0,1-26.29.17,5.45,5.45,0,0,1-4.53-5l-5.42-75.76a.45.45,0,0,0-.89,0c-.48,16.84-1.46,53.82-1.43,75.71a5,5,0,0,1-3.89,4.86c-8.85,2-19.72,1.36-27.26-.41a5.28,5.28,0,0,1-4.05-4.49c-2.08-16.37-10.51-85.78-6.48-109.66a.45.45,0,0,1,.45-.37L359,250.34A.44.44,0,0,1,359.43,250.8Z"/><path class="cls-8" d="M302.92,364a45.09,45.09,0,0,1-10,1.24A56.69,56.69,0,0,0,306.27,364a5,5,0,0,0,3.89-4.86c0-11.74.26-27.81.6-42.79l.83-32.92c0-.57-1.8-2.33-2.12,0-2.28,16.71-3,53.78-3,75.66A4.91,4.91,0,0,1,302.92,364Z"/><path class="cls-8" d="M341.71,364a72.46,72.46,0,0,1-10,1.09,85.38,85.38,0,0,0,17-1.09,4.41,4.41,0,0,0,3.64-3.82c3.84-30.83,6.82-103,7.07-109.35a.44.44,0,0,0-.44-.46l-3.79-.06-4.1.06a.44.44,0,0,1,.41.46c-.25,6.39-3,78.52-6.47,109.35A4.26,4.26,0,0,1,341.71,364Z"/><path class="cls-9" d="M274.57,251.14s45.17,8,66,3.12c14.31-3.34,17.32-4,17.8-4.19l-.09,0V152.54a56.44,56.44,0,0,0-22-15.38l-.12,0A51.1,51.1,0,0,0,326,134.38c-1.23-.19-2.5-.35-3.79-.45-.84-.07-1.71-.11-2.58-.14a33.39,33.39,0,0,0-7.39.63c-.51.1-1,.22-1.51.35a41.1,41.1,0,0,0-9.75,3.78l0,0c-.91.47-1.79,1-2.65,1.5-12.79,7.8-21,20.1-21,20.1Z"/><path class="cls-3" d="M320.44,313.21s23.34,7.9,59,1.45c1.06-6.38,1-26.79.83-41.47-.12-9.09-.29-16-.29-16a4.65,4.65,0,0,0,1.2-1.84,194.07,194.07,0,0,0,1.89-20c1.4-29.15-1.66-81.41-39.31-95.85C343.78,139.5,314.54,191.42,320.44,313.21Z"/><path class="cls-10" d="M299.73,139.5c-53.07,20.36-46.29,161.36-44.58,171.69a57.08,57.08,0,0,0,34.16,0C295.22,189.4,299.73,139.5,299.73,139.5Z"/><path class="cls-3" d="M297.87,139.5c-53.07,20.36-46.29,161.36-44.58,171.69a57.12,57.12,0,0,0,34.17,0C293.36,189.4,297.87,139.5,297.87,139.5Z"/><path class="cls-10" d="M312.41,144.57l-3.76,7.22-10.32-11.46c.86-.61,1.74-1.2,2.65-1.76l0,0a41.1,41.1,0,0,1,9.75-3.78,19.25,19.25,0,0,0,2.14,5.42,6.7,6.7,0,0,0,.56.8l.19-.15c.11.11.21.22.32.31a4.51,4.51,0,0,0,4,1.09,8.54,8.54,0,0,0,2.21-.79,10.09,10.09,0,0,0,1.87-1.27,13.1,13.1,0,0,0,1.25-1.22l0,0a22.64,22.64,0,0,0,2.7-4.63,51.1,51.1,0,0,1,10.17,2.74l-10.4,14.67L324,148.66a7.48,7.48,0,0,1-1.41,1.51c.42,7.51,1.75,33,.9,42.55-.09,1-8.25,12.73-9.21,12.79-1.24.09-6.28-12.18-6.29-13.41,0-9.76,5.52-35.06,7.12-42.14C314,149.15,313,146.52,312.41,144.57Z"/><path class="cls-11" d="M351.8,205.51c6.72,13.26,18.71,0,18.71,0,1.92,5.71,10.94,24.27,12.58,29.84a194.07,194.07,0,0,1-1.89,20,4.65,4.65,0,0,1-1.2,1.84s.17,6.91.29,16c-3.23,4.55-12.22,4.86-17.94,2.77-4.66-1.7-3.6-9.61-3.6-9.61l-3-.78c-3-.79,0-5.4,0-5.4l-4.24-1.94C355.3,238.5,353.3,225.75,351.8,205.51Z"/><path class="cls-12" d="M381.88,252.22s7.65,20.5-12,21.08c-5.65.17-9.07-2.53-8.29-13.17-.88,1.86-1.45,4.54-2.63,4.1-3.32-1.23.79-12.06.79-12.06Z"/><path class="cls-13" d="M361.56,261c-.55,9.94,2.83,12.5,8.34,12.35,12.35-.37,13.9-8.62,13.35-14.69-.5,5.23-3.48,10.57-13.35,10.86C365.18,269.62,362,267.76,361.56,261Z"/><path class="cls-13" d="M359,264.23c1.14.43,1.71-2.06,2.54-3.89a35.21,35.21,0,0,1,.1-4c-.88,1.85-1.46,4.53-2.64,4.09a1.89,1.89,0,0,1-1.1-1.36C357.51,261.46,357.58,263.7,359,264.23Z"/><path class="cls-13" d="M361.52,260.34c0,.22,0,.42,0,.62,0-.27,0-.54.06-.82A1.24,1.24,0,0,0,361.52,260.34Z"/><path class="cls-3" d="M351.06,198c6,19.4,3.89,59.33,3.89,59.33,29.12,7.58,32.67-2.48,32.67-2.48s9.23-95-43.84-115.36"/><polygon class="cls-11" points="325.79 199.83 343.78 181.57 336.31 163.69 358.37 159.89 340.48 166.88 346.88 182.1 325.79 199.83"/><path class="cls-12" d="M267.16,119.23c9.15,10.18,21.73,14,33.8,15,2.87.25,5.71.36,8.48.36a4.19,4.19,0,0,0,.14.47c.1.37.22.75.35,1.14a15.88,15.88,0,0,0,2.08,4.21,8.16,8.16,0,0,0,.85,1,3.91,3.91,0,0,0,.36.35,2.35,2.35,0,0,0,.25.19,5,5,0,0,0,4.26,1,9.9,9.9,0,0,0,2.5-.89l.28-.16a11.35,11.35,0,0,0,1.82-1.27,13.25,13.25,0,0,0,1.42-1.38,20.43,20.43,0,0,0,2.64-3.71c.21-.37.4-.72.56-1l.18-.35a76.51,76.51,0,0,0,8.22-.59c29.14-3.65,35.45-22.77,35.45-22.77s26.6,2.31,25.51-25.25c-.89-22.48-20.8-9.77-22.47,1.53.61-13.72-.26-27.68-15.19-39.76s-88.89,0-88.89,0S254.05,104.66,267.16,119.23Z"/><path class="cls-14" d="M394.94,77.21c1.4-21.24,8.29-57.51-36.42-72.15-49-16-84.32,11.3-94,10-4.67-.63-7.12-2.42-8.41-4.16a2.31,2.31,0,0,0-3.92.43c-4.48,8.89-10.52,33.08,10,44.58,26.53,14.86,88.08-2.39,101.1,4.55,3.23,1.72,5.11,12.6,4.78,21.06-.27,6.83,4.32,7.16,5.47,4.93,2-3.94,3.11-7,6.16-9.34C387.53,71.18,391.52,72.76,394.94,77.21Z"/><path class="cls-15" d="M257.77,52.89a29.76,29.76,0,0,0,4.46,3c26.54,14.86,88.08-2.4,101.1,4.54,3.23,1.73,5.11,12.61,4.77,21.07-.26,6.83,4.33,7.16,5.48,4.93,2-3.94,3.11-7,6.16-9.34,7.79-5.94,11.78-4.36,15.2.08,1.36-20.73,8-55.83-33.4-71.09,26.52,17.21,29.87,48.1,20.16,52.8s-11.86-3.11-15.8-5.14C344.79,42.85,316.05,65.36,257.77,52.89Z"/><path class="cls-5" d="M313.69,148.06h6.93s2,33.46,1,44.66c-.08,1-8.25,12.72-9.21,12.79-1.23.1-6.28-12.18-6.28-13.41C306.11,180.7,313.69,148.06,313.69,148.06Z"/><path class="cls-16" d="M308.68,143.12s1.64,7.12,3.75,8.6c1.42,1,6.58,1.29,8.11.47,2.4-1.28,6-9.07,6-9.07l-4.24-2.43a10.3,10.3,0,0,1-4.6,2.32c-2.54.5-4.38-.75-5.72-2.58Z"/><path class="cls-14" d="M333.19,86c-.31,3.4,1.48,6.34,4,6.57s4.8-2.35,5.11-5.75-1.48-6.34-4-6.56S333.5,82.56,333.19,86Z"/><path class="cls-14" d="M276.48,79.79c-.31,3.4,1.48,6.34,4,6.57s4.8-2.35,5.11-5.75-1.48-6.34-4-6.56S276.79,76.39,276.48,79.79Z"/><path class="cls-17" d="M323.67,97.62s-20.57,1.15-33.88-2.19c0,0-3.81,24.49,14.35,26.57S323.67,97.62,323.67,97.62Z"/><circle class="cls-13" cx="344.79" cy="106.22" r="10.79"/><circle class="cls-13" cx="274.03" cy="101.06" r="10.79"/><path class="cls-18" d="M320.51,142l5.28,8,10.52-12.76a49.11,49.11,0,0,0-9.36-2.62c-.16.33-.35.68-.56,1a20.43,20.43,0,0,1-2.64,3.71,13.25,13.25,0,0,1-1.42,1.38A11.35,11.35,0,0,1,320.51,142Z"/><path class="cls-18" d="M298.33,140.07l10.31,9.86,4.83-8a2.35,2.35,0,0,1-.25-.19,3.91,3.91,0,0,1-.36-.35,8.16,8.16,0,0,1-.85-1,15.88,15.88,0,0,1-2.08-4.21c-.13-.39-.25-.77-.35-1.14A43.84,43.84,0,0,0,298.33,140.07Z"/><path class="cls-13" d="M387.43,85.58s-3.11-4.19-8.08,2.56-5,13,0,12.66,8.95-6.1,3.73-8.25C383.08,92.55,379.35,86.13,387.43,85.58Z"/><g class="cls-2"><path class="cls-19" d="M343,143.18c-5.81-6.18-14.6-5.42-14.69-5.42a1.67,1.67,0,0,1-.89-.16c.28-.5.53-1,.74-1.4a76.51,76.51,0,0,0,8.22-.59,19.91,19.91,0,0,1,8.89,5.39c5.2,5.52,7.12,14.08,5.74,25.45l.15.08a1,1,0,0,1,.45.84v.21c5.88,1,8.57,4.41,9.77,7.28,3.65,8.67-1.56,22.34-6.89,28.34-2.21,2.47-4,3.16-5.35,3.16a3.83,3.83,0,0,1-1-.15,1.57,1.57,0,0,1,.87-3c.49.15,1.68-.45,3.14-2.09,4.55-5.11,9.42-17.7,6.34-25-1.21-2.88-3.6-4.66-7.09-5.33a.84.84,0,0,1-.67.23c-.69-.07-1.7-.16-2.89-.2a.86.86,0,0,1-.68-.33c-8.47.43-12.52,6.58-14.44,11.9-3.25,8.91-1.82,18.15-.58,19.48a1.59,1.59,0,0,1,1.5,1.35,1.57,1.57,0,0,1-1.33,1.78,2.84,2.84,0,0,1-2.82-1.45c-2.74-4-2.89-17.33,2.1-26.3,3.51-6.29,8.92-9.68,15.75-9.91l0-.12a1.14,1.14,0,0,1,.5-.91C349.14,155.79,347.52,148,343,143.18Z"/><path class="cls-19" d="M293.08,141.64a19.93,19.93,0,0,1,8.88-5.39c2.87.25,5.71.36,8.48.36.14.5.29,1,.49,1.61a1.48,1.48,0,0,1-.89.18c-.09,0-8.84-.79-14.68,5.4-4.89,5.19-6.43,13.76-4.57,25.47a1.56,1.56,0,0,1-1.3,1.8l-.25,0a1.59,1.59,0,0,1-1.55-1.33C285.67,157,287.48,147.58,293.08,141.64Z"/></g><path class="cls-5" d="M330.56,175.21c-5,9-4.84,22.33-2.1,26.31a2.85,2.85,0,0,0,2.82,1.44,1.57,1.57,0,0,0,1.33-1.78,1.59,1.59,0,0,0-1.5-1.35c-1.24-1.33-2.67-10.57.58-19.48,2.06-5.69,6.56-12.36,16.31-11.9,4.81.23,8,2.13,9.46,5.63,3.08,7.32-1.79,19.91-6.34,25-1.46,1.64-2.65,2.24-3.14,2.09a1.57,1.57,0,0,0-.87,3,3.83,3.83,0,0,0,1,.15c1.32,0,3.14-.69,5.35-3.16,5.33-6,10.54-19.67,6.89-28.34-1.25-3-4.1-6.56-10.5-7.4,1.62-11.88-.27-20.78-5.62-26.46a19.91,19.91,0,0,0-8.89-5.39,76.51,76.51,0,0,1-8.22.59c-.21.43-.46.9-.74,1.4a1.67,1.67,0,0,0,.89.16c.09,0,8.88-.76,14.69,5.42,4.7,5,6.28,13.11,4.74,24.1C339.68,165.39,334.14,168.8,330.56,175.21Z"/><path class="cls-5" d="M286.69,167.76a1.59,1.59,0,0,0,1.55,1.33l.25,0a1.56,1.56,0,0,0,1.3-1.8c-1.86-11.71-.32-20.28,4.57-25.47,5.84-6.19,14.59-5.41,14.68-5.4a1.48,1.48,0,0,0,.89-.18c-.2-.56-.35-1.11-.49-1.61-2.77,0-5.61-.11-8.48-.36a19.93,19.93,0,0,0-8.88,5.39C286.48,145.58,284.67,155,286.69,167.76Z"/><path class="cls-9" d="M350.58,165.37l.05,2.75a.85.85,0,0,1-.93.86c-.69-.07-1.7-.16-2.89-.2a.93.93,0,0,1-.9-1.09l.42-2.51c.09-.53.26-.78.51-.91a3.2,3.2,0,0,1,3.29.26A1,1,0,0,1,350.58,165.37Z"/><path class="cls-7" d="M293.75,145l-71.07,9.18a5.92,5.92,0,0,0-5,7.13l17.95,82.42a5.92,5.92,0,0,0,6.59,4.61l64.08-8.86a5.93,5.93,0,0,0,5.06-6.64l-10.95-82.74A5.93,5.93,0,0,0,293.75,145Z"/><path class="cls-20" d="M229.32,214.85l6.28,28.84a5.91,5.91,0,0,0,6.6,4.6l64.06-8.85a5.92,5.92,0,0,0,5.07-6.64l-11-82.74c-.42-3.24,9.35,51.33-26.06,69C240.44,236,229.32,214.85,229.32,214.85Z"/><path class="cls-19" d="M277.74,145.63l.4,2.5a3.43,3.43,0,0,1-2.94,3.94l-38,5.06a3.42,3.42,0,0,1-3.85-2.88l-.44-2.86a3.43,3.43,0,0,1,3-3.93l38-4.69A3.43,3.43,0,0,1,277.74,145.63Z"/><circle class="cls-19" cx="275.85" cy="159.89" r="2.33"/><circle class="cls-19" cx="241.66" cy="164.55" r="2.33"/><path class="cls-12" d="M241.15,190.46c4,3.21,6.25,21.9-8.62,19.23S221,190.36,225.2,189.34,237.15,187.26,241.15,190.46Z"/><path class="cls-13" d="M221.89,200.07c.84,4.25,3.83,8.4,10.64,9.62,14.56,2.61,12.72-15.23,8.88-19,1.4,6.48-.35,15.87-11.19,13.93A13.21,13.21,0,0,1,221.89,200.07Z"/><path class="cls-3" d="M250.16,105.9s-11.76,1.64-15.51-3.82,2.81-49.28-7.94-66.41c-10.25-16.33-119.43-23.45-145,0s-8.33,83.86.94,94.76S93.51,141.34,112,140.79s80.69,1.45,94.87.18S229.33,134,232,118.05,243.25,118.44,250.16,105.9Z"/><path class="cls-21" d="M99.79,113.86h58.78a3,3,0,0,0,0-6H99.79a3,3,0,0,0,0,6Z"/><path class="cls-21" d="M146.18,52.8H205a3,3,0,0,0,0-6H146.18a3,3,0,0,0,0,6Z"/><path class="cls-21" d="M100.07,71.25H205a3,3,0,0,0,0-6H100.07a3,3,0,0,0,0,6Z"/><path class="cls-21" d="M100.07,89.7H205a3,3,0,0,0,0-6H100.07a3,3,0,0,0,0,6Z"/><path class="cls-21" d="M170.35,113.86H205a3,3,0,0,0,0-6h-34.6a3,3,0,0,0,0,6Z"/><path class="cls-21" d="M99.79,52.8h34.6a3,3,0,0,0,0-6H99.79a3,3,0,0,0,0,6Z"/></g></g></g></svg>