<svg xmlns="http://www.w3.org/2000/svg" viewBox="0 0 1144.32 245.56"><defs><style>.cls-1{opacity:0.29;}.cls-2{fill:#80bb4a;}</style></defs><title>Ativo 8</title><g id="Camada_2" data-name="Camada 2"><g id="Camada_1-2" data-name="Camada 1"><g class="cls-1"><path class="cls-2" d="M0,80.56C9,52.26,21.37,24,34.65,2.31L61.21,0A436.69,436.69,0,0,0,41,78Zm56.31,0C65.26,52.26,77.67,24,91,2.31L117.52,0c-8.66,24.54-16.17,52.55-20.21,78Z"/></g><g class="cls-1"><path class="cls-2" d="M1088,165c-9,28.3-21.66,56.59-34.65,78.25l-26.57,2.31C1035.47,221,1043,193,1047,167.6Zm56.3,0c-9,28.3-21.36,56.59-34.65,78.25l-26.56,2.31c8.66-24.54,16.17-52.55,20.21-78Z"/></g></g></g></svg>