<svg height="512" viewBox="0 0 64 64" width="512" xmlns="http://www.w3.org/2000/svg"><g id="avatar-user-people-man-boy"><path d="m39.53 18a8 8 0 0 1 -6.86-3.88l-.67-1.12-.67 1.12a8 8 0 0 1 -6.86 3.88h-4.47v7c0 .34.01.67.04 1s.07.65.12.97a12.006 12.006 0 0 0 7.84 9.34 11.939 11.939 0 0 0 8 0 12.006 12.006 0 0 0 7.84-9.34c.05-.32.09-.64.12-.97s.04-.66.04-1v-7z" fill="#ffc477"/><path d="m44 18v7c0 .34-.01.67-.04 1s-.07.65-.12.97a12.006 12.006 0 0 1 -7.84 9.34 11.8 11.8 0 0 1 -4 .69 12 12 0 0 1 -2-.17 11.082 11.082 0 0 0 2-.52 12.006 12.006 0 0 0 7.84-9.34c.05-.32.09-.64.12-.97s.04-.66.04-1v-7z" fill="#ffa733"/><g fill="#e0e0e2"><path d="m17 43.89v17.11h-8v-8.83a8 8 0 0 1 5.96-7.74z"/><path d="m43 42.84v10.16h-22v-10.16l3-.79c.04 2.74 3.61 4.95 8 4.95s7.96-2.21 8-4.95z"/><path d="m55 52.17v8.83h-8v-17.11l2.04.54a8 8 0 0 1 5.96 7.74z"/></g><path d="m55 52.17v8.83h-4v-8.83a7.959 7.959 0 0 0 -4-6.92v-1.36l2.04.54a8 8 0 0 1 5.96 7.74z" fill="#c6c5ca"/><path d="m47 19.36a4 4 0 0 1 -3 6.64h-.04c.03-.33.04-.66.04-1v-7a3.984 3.984 0 0 1 3 1.36z" fill="#ffc477"/><path d="m47 43.89v17.11h-30v-17.11l4-1.05v10.16h22v-10.16z" fill="#787680"/><path d="m20 18a3.984 3.984 0 0 0 -3 1.36v-1.36a15 15 0 0 1 30 0v1.36a3.984 3.984 0 0 0 -3-1.36h-4.47a8 8 0 0 1 -6.86-3.88l-.67-1.12-.67 1.12a8 8 0 0 1 -6.86 3.88z" fill="#ffd422"/><path d="m47 18v1.36a3.984 3.984 0 0 0 -3-1.36h-1a15.016 15.016 0 0 0 -13-14.86 14.6 14.6 0 0 1 2-.14 15.023 15.023 0 0 1 15 15z" fill="#ebbf00"/><path d="m36 41 4 1.05c-.04 2.74-3.61 4.95-8 4.95s-7.96-2.21-8-4.95l4-1.05v-4.69a11.939 11.939 0 0 0 8 0z" fill="#ffc477"/><path d="m20.04 26h-.04a4 4 0 0 1 -3-6.64 3.984 3.984 0 0 1 3-1.36v7c0 .34.01.67.04 1z" fill="#ffc477"/><path d="m49.29 43.46-12.29-3.23v-3.23a13.022 13.022 0 0 0 7.84-10.08 4.967 4.967 0 0 0 3.16-7.89v-1.03a16 16 0 0 0 -32 0v1.03a4.939 4.939 0 0 0 -1 2.97 4.982 4.982 0 0 0 4.16 4.92 13.037 13.037 0 0 0 7.84 10.08v3.23l-12.3 3.23a9.03 9.03 0 0 0 -6.7 8.71v8.83a1 1 0 0 0 1 1h46a1 1 0 0 0 1-1v-8.83a9.028 9.028 0 0 0 -6.71-8.71zm-2.29-21.46a3.022 3.022 0 0 1 -.87 2.12 2.951 2.951 0 0 1 -1.13.69v-5.63a3.01 3.01 0 0 1 2 2.82zm-28 2.82a3.179 3.179 0 0 1 -1.12-.69 3 3 0 0 1 1.12-4.95zm-.97-7.41a13.973 13.973 0 0 1 23.86-9.3 13.808 13.808 0 0 1 4.08 9.3 4.977 4.977 0 0 0 -1.64-.38l-3.27-1.96a7.055 7.055 0 0 1 -2.23-2.12l-3-4.5-1.66 1.1 3 4.51a9.062 9.062 0 0 0 2.86 2.72l.36.22h-.86a7.008 7.008 0 0 1 -6-3.4l-.67-1.11a1.037 1.037 0 0 0 -1.72 0l-.67 1.11a7.008 7.008 0 0 1 -6 3.4h-.86l.36-.22a9.062 9.062 0 0 0 2.86-2.72l3-4.51-1.66-1.1-3 4.5a7.055 7.055 0 0 1 -2.23 2.12l-3.27 1.96a4.977 4.977 0 0 0 -1.64.38zm2.97 7.59v-6h3.47a9.039 9.039 0 0 0 7.53-4.07 9.039 9.039 0 0 0 7.53 4.07h3.47v6a11 11 0 0 1 -22 0zm7.25 16.97a1.014 1.014 0 0 0 .75-.97v-3.36a12.68 12.68 0 0 0 6 0v3.36a1.014 1.014 0 0 0 .75.97l3.11.81c-.66 1.81-3.54 3.22-6.86 3.22s-6.2-1.41-6.86-3.22zm-6.25 1.64 1.2-.31c.87 2.71 4.44 4.7 8.8 4.7s7.93-1.99 8.8-4.7l1.2.31v8.39h-20zm-6 16.39h-6v-7.83a7.019 7.019 0 0 1 5.21-6.77l.79-.21zm30 0h-28v-15.34l2-.52v8.86a1 1 0 0 0 1 1h22a1 1 0 0 0 1-1v-8.86l2 .52zm8 0h-6v-14.81l.78.21a7.017 7.017 0 0 1 5.22 6.77z"/><path d="m27 56h10v2h-10z"/><path d="m23 56h2v2h-2z"/><path d="m39 56h2v2h-2z"/><path d="m29 23a3 3 0 0 0 -6 0h2a1 1 0 0 1 2 0z"/><path d="m38 22a1 1 0 0 1 1 1h2a3 3 0 0 0 -6 0h2a1 1 0 0 1 1-1z"/><path d="m37 29h-2c0 .249-1.064 1-3 1s-3-.751-3-1h-2c0 1.71 2.149 3 5 3s5-1.29 5-3z"/></g></svg>