<svg xmlns="http://www.w3.org/2000/svg" viewBox="0 0 22.84 22.86"><defs><style>.cls-1{fill:#fff;}</style></defs><title>email-w</title><g id="Camada_2" data-name="Camada 2"><g id="Camada_1-2" data-name="Camada 1"><path class="cls-1" d="M18.4,7.68v7.5c-.38,1.05-.91,1.48-1.83,1.49H6.27a1.71,1.71,0,0,1-1.54-.81,5.15,5.15,0,0,1-.29-.68V7.68c.39-1,.91-1.48,1.83-1.48h10.3a1.72,1.72,0,0,1,1.54.8A5.15,5.15,0,0,1,18.4,7.68ZM9.72,11.42l-3.8,4.34h11l-3.8-4.34-1.3,1.11c-.32.26-.48.26-.79,0Zm1.7.31,5.42-4.64H6Zm2.36-.88,3.72,4.26V7.66Zm-4.72,0L5.34,7.66v7.45Z"/><path class="cls-1" d="M11.46,0A11.43,11.43,0,1,0,22.84,11.43,11.43,11.43,0,0,0,11.46,0Zm0,21.17a9.74,9.74,0,1,1,9.73-9.74A9.73,9.73,0,0,1,11.42,21.17Z"/></g></g></svg>