<svg xmlns="http://www.w3.org/2000/svg" viewBox="0 0 45.86 88.83"><defs><style>.cls-1{opacity:0.36;}.cls-2,.cls-3{fill:none;stroke:#fff;stroke-width:2px;}.cls-2{stroke-miterlimit:10;}.cls-3{stroke-linecap:round;stroke-linejoin:round;}</style></defs><title>facial-ico</title><g id="Camada_2" data-name="Camada 2"><g id="Camada_1-2" data-name="Camada 1"><g class="cls-1"><rect class="cls-2" x="1" y="18.9" width="43.86" height="50.13" rx="21.93"/><path class="cls-2" d="M28.75,54.26a5.82,5.82,0,0,1-11.64,0"/><path class="cls-2" d="M38.15,39.07c0,1.16-1.71,2.1-3.81,2.1s-3.8-.94-3.8-2.1"/><path class="cls-2" d="M16.66,39.07c0,1.16-1.7,2.1-3.8,2.1s-3.8-.94-3.8-2.1"/><path class="cls-3" d="M43.07,1H28.45S13.55,2.21,8.52,14.29c-3.32,8,2,4,2,4s1.33-4,8-6.65,10-1.33,10-1.33,1.9.8.67,1.33c-1.53.66-6.13,1.19-4.65,2.66,2.65,2.66,12,0,12,0L43.07,9"/><path class="cls-3" d="M7.27,87.83H21.88s14.9-1.21,19.94-13.29c3.32-8-2-4-2-4s-1.33,4-8,6.65-10,1.32-10,1.32-1.89-.79-.66-1.32c1.52-.66,6.12-1.19,4.65-2.66-2.66-2.66-12,0-12,0L7.27,79.85"/></g></g></g></svg>