<svg xmlns="http://www.w3.org/2000/svg" viewBox="0 0 42.12 42.12"><defs><style>.cls-1{fill:#666;}</style></defs><title>Ativo 2</title><g id="Camada_2" data-name="Camada 2"><g id="Camada_1-2" data-name="Camada 1"><path class="cls-1" d="M22.17,42.12H20a3.43,3.43,0,0,0-.44-.09,17.28,17.28,0,0,1-4.84-.92C6.92,38.4,2.14,33,.4,25c-.2-.93-.27-1.89-.4-2.84V20c.07-.65.13-1.3.23-1.94A20.78,20.78,0,0,1,6.07,6.29,20.56,20.56,0,0,1,17.7.3C18.45.18,19.2.1,20,0h2.22c.65.07,1.31.13,1.95.23a20.79,20.79,0,0,1,11.35,5.5,20.52,20.52,0,0,1,6.35,12c.12.75.2,1.5.3,2.25v2.22c-.07.65-.13,1.31-.23,1.95a20.82,20.82,0,0,1-5.74,11.6,20.57,20.57,0,0,1-11.68,6.1C23.71,41.94,22.94,42,22.17,42.12ZM2.33,21.05A18.73,18.73,0,1,0,21.09,2.33,18.75,18.75,0,0,0,2.33,21.05Z"/><path class="cls-1" d="M24.46,36.28a19.33,19.33,0,0,1-2.29-.68,28.6,28.6,0,0,1-9.31-6A27.75,27.75,0,0,1,6.26,19.1,6.54,6.54,0,0,1,6,18a1.88,1.88,0,0,1,.37-1.47,21.65,21.65,0,0,1,3.43-4,1.69,1.69,0,0,1,2.53-.16,10.69,10.69,0,0,1,3.28,3.38,5,5,0,0,1,.47,1,1.38,1.38,0,0,1-.53,1.83c-.55.42-1.12.8-1.7,1.18a2,2,0,0,0-1,2.69,8.88,8.88,0,0,0,2.09,3.42A12.32,12.32,0,0,0,18.86,29a6.87,6.87,0,0,0,1.68.47,1.63,1.63,0,0,0,1.67-.83c.43-.64.84-1.3,1.31-1.92a1.45,1.45,0,0,1,2.07-.57,9.64,9.64,0,0,1,4.54,4.29A1.23,1.23,0,0,1,30,31.94c-.84.89-1.71,1.75-2.62,2.58a12.5,12.5,0,0,1-1.71,1.25A6.69,6.69,0,0,1,24.46,36.28Z"/><path class="cls-1" d="M21,7.5A14,14,0,0,1,34.21,18.24a22.33,22.33,0,0,1,.4,3.05,1.17,1.17,0,0,1-1.13,1.38c-.72,0-1.17-.49-1.18-1.33a11.76,11.76,0,0,0-9.91-11.4,14.35,14.35,0,0,0-1.61-.12c-.84,0-1.34-.45-1.34-1.17s.49-1.16,1.34-1.15Z"/><path class="cls-1" d="M20.87,12.16a9.34,9.34,0,0,1,8.9,7.73,11.69,11.69,0,0,1,.16,1.45,1.2,1.2,0,0,1-1.14,1.34,1.16,1.16,0,0,1-1.17-1.24A7,7,0,0,0,22,14.64a7.11,7.11,0,0,0-1.3-.16c-.78,0-1.26-.45-1.26-1.14a1.14,1.14,0,0,1,1.27-1.18Z"/><path class="cls-1" d="M25.22,21.12c0,.9-.2,1.29-.78,1.49a1.07,1.07,0,0,1-1.29-.44,2.06,2.06,0,0,1-.23-.75,2.36,2.36,0,0,0-2.27-2.27c-.86-.08-1.3-.57-1.21-1.33a1.22,1.22,0,0,1,1.47-1,4.66,4.66,0,0,1,4.25,3.76A3.6,3.6,0,0,1,25.22,21.12Z"/></g></g></svg>