<svg xmlns="http://www.w3.org/2000/svg" viewBox="0 0 54.99 54.99"><defs><style>.cls-1{fill:#fff;}</style></defs><title>fone-w</title><g id="Camada_2" data-name="Camada 2"><g id="Camada_1-2" data-name="Camada 1"><path class="cls-1" d="M29,55H26a3.73,3.73,0,0,0-.58-.12,22.6,22.6,0,0,1-6.31-1.21C9,50.13,2.8,43.13.53,32.64.26,31.43.17,30.18,0,29V26c.1-.85.16-1.7.29-2.54A27.18,27.18,0,0,1,7.93,8.21,26.76,26.76,0,0,1,23.11.39C24.08.23,25.06.13,26,0H29c.84.1,1.7.17,2.54.3A27.13,27.13,0,0,1,46.3,7.48a26.85,26.85,0,0,1,8.3,15.63c.15,1,.26,1.95.39,2.93V29c-.1.84-.17,1.7-.3,2.54a27.14,27.14,0,0,1-7.5,15.14,26.81,26.81,0,0,1-15.25,8C31,54.75,29.94,54.86,29,55ZM3,27.47A24.46,24.46,0,1,0,27.53,3,24.49,24.49,0,0,0,3,27.47Z"/><path class="cls-1" d="M31.92,47.37a30.09,30.09,0,0,1-3-.89A37.26,37.26,0,0,1,16.79,38.6,36.21,36.21,0,0,1,8.17,24.93a7.5,7.5,0,0,1-.33-1.4,2.44,2.44,0,0,1,.47-1.92,28.22,28.22,0,0,1,4.48-5.27c1.27-1.07,1.9-1.11,3.3-.2a13.79,13.79,0,0,1,4.29,4.41A6.28,6.28,0,0,1,21,21.86a1.81,1.81,0,0,1-.7,2.38c-.71.55-1.47,1.05-2.22,1.54-1.5,1-1.82,1.79-1.32,3.52a11.71,11.71,0,0,0,2.73,4.45,16,16,0,0,0,5.13,4.09,8.26,8.26,0,0,0,2.2.61A2.11,2.11,0,0,0,29,37.37c.56-.84,1.1-1.7,1.71-2.5a1.88,1.88,0,0,1,2.7-.74,12.49,12.49,0,0,1,5.93,5.6,1.61,1.61,0,0,1-.23,2q-1.65,1.74-3.42,3.36a17.06,17.06,0,0,1-2.23,1.64A10.56,10.56,0,0,1,31.92,47.37Z"/><path class="cls-1" d="M27.46,9.78a18.32,18.32,0,0,1,17.2,14,29.48,29.48,0,0,1,.52,4A1.53,1.53,0,0,1,43.7,29.6c-.93,0-1.52-.64-1.54-1.74A15.35,15.35,0,0,0,29.23,13a18.37,18.37,0,0,0-2.1-.15c-1.11,0-1.76-.59-1.76-1.53S26,9.78,27.13,9.78Z"/><path class="cls-1" d="M27.24,15.87A12.19,12.19,0,0,1,38.86,26a15.12,15.12,0,0,1,.21,1.9,1.55,1.55,0,0,1-1.48,1.74A1.51,1.51,0,0,1,36.06,28a9.17,9.17,0,0,0-7.34-8.88,9.72,9.72,0,0,0-1.7-.19c-1-.05-1.64-.59-1.65-1.49A1.51,1.51,0,0,1,27,15.87Z"/><path class="cls-1" d="M32.93,27.57c0,1.17-.26,1.69-1,1.95A1.41,1.41,0,0,1,30.23,29a2.43,2.43,0,0,1-.3-1,3.1,3.1,0,0,0-3-3c-1.12-.11-1.69-.74-1.57-1.74A1.59,1.59,0,0,1,27.3,22a6.08,6.08,0,0,1,5.54,4.91C32.9,27.18,32.91,27.47,32.93,27.57Z"/></g></g></svg>