<?xml version="1.0" encoding="UTF-8"?>
<svg xmlns="http://www.w3.org/2000/svg" viewBox="0 0 64 64" width="512" height="512"><g id="woman-girl-avatar-female-user"><path d="M32,19a115.874,115.874,0,0,1-12-.59V25c0,.34.01.67.04,1a11.383,11.383,0,0,0,.32,1.94,11.709,11.709,0,0,0,1.48,3.44,11.406,11.406,0,0,0,1.67,2.11A12,12,0,0,0,36,36.31a11.939,11.939,0,0,0,6.16-4.93,12.138,12.138,0,0,0,1.48-3.44A13.773,13.773,0,0,0,43.96,26c.03-.33.04-.66.04-1V18.41A115.874,115.874,0,0,1,32,19Z" style="fill:#ffc477"/><path d="M44,18.41V25c0,.34-.01.67-.04,1a13.773,13.773,0,0,1-.32,1.94,12.138,12.138,0,0,1-1.48,3.44A11.939,11.939,0,0,1,36,36.31,11.8,11.8,0,0,1,32,37a12,12,0,0,1-2-.17,11.082,11.082,0,0,0,2-.52,11.939,11.939,0,0,0,6.16-4.93,12.138,12.138,0,0,0,1.48-3.44A13.773,13.773,0,0,0,39.96,26c.03-.33.04-.66.04-1V18.75C41.41,18.66,42.74,18.54,44,18.41Z" style="fill:#ffa733"/><path d="M55,52.17V61H42a5,5,0,0,0,3-9V43.37l4.04,1.06A8,8,0,0,1,55,52.17Z" style="fill:#ffc477"/><path d="M55,52.17V61H51V52.17a8,8,0,0,0-5.96-7.74L45,44.42V43.37l4.04,1.06A8,8,0,0,1,55,52.17Z" style="fill:#ffa733"/><path d="M45.55,11.76C51.28,12.5,55,13.67,55,15s-3.79,2.53-9.61,3.26c-.45.05-.91.1-1.39.15A115.874,115.874,0,0,1,32,19a115.874,115.874,0,0,1-12-.59c-.48-.05-.93-.1-1.38-.15C12.79,17.53,9,16.34,9,15s3.72-2.5,9.45-3.24A11.58,11.58,0,0,0,18,15H46A11.58,11.58,0,0,0,45.55,11.76Z" style="fill:#c0ab91"/><path d="M55,15c0,1.34-3.79,2.53-9.61,3.26-.45.05-.91.1-1.39.15A115.874,115.874,0,0,1,32,19c-.62,0-1.24-.01-1.85-.02,3.59-.06,6.94-.26,9.85-.57.48-.05.94-.1,1.39-.15C47.21,17.53,51,16.34,51,15c0-.97-1.98-1.85-5.27-2.55q-.075-.345-.18-.69C51.28,12.5,55,13.67,55,15Z" style="fill:#a78966"/><path d="M48,24a6,6,0,1,1-5.83,7.39l-.01-.01a12.138,12.138,0,0,0,1.48-3.44A13.773,13.773,0,0,0,43.96,26H44a3.975,3.975,0,0,0,3.44-1.97A5.115,5.115,0,0,1,48,24Z" style="fill:#ffd422"/><path d="M54,30a6.008,6.008,0,0,1-8,5.66,6,6,0,0,0,.9-10.91,3.763,3.763,0,0,0,.54-.72A5.115,5.115,0,0,1,48,24,6,6,0,0,1,54,30Z" style="fill:#ebbf00"/><path d="M48,22a3.918,3.918,0,0,1-.56,2.03A3.975,3.975,0,0,1,44,26h-.04c.03-.33.04-.66.04-1V18.41c.48-.05.94-.1,1.39-.15a3.881,3.881,0,0,1,1.44.91,1.537,1.537,0,0,1,.17.19A4,4,0,0,1,48,22Z" style="fill:#ffc477"/><path d="M46,15H18a11.58,11.58,0,0,1,.45-3.24,11.838,11.838,0,0,1,3.06-5.25A11.962,11.962,0,0,1,30,3h4a11.981,11.981,0,0,1,11.55,8.76A11.58,11.58,0,0,1,46,15Z" style="fill:#a78966"/><path d="M46,15H42a11.58,11.58,0,0,0-.45-3.24A11.981,11.981,0,0,0,30,3h4a11.981,11.981,0,0,1,11.55,8.76A11.58,11.58,0,0,1,46,15Z" style="fill:#806749"/><path d="M47,56a5,5,0,0,1-5,5H22a5,5,0,0,1-3-9V43.37l3-.79V43a5,5,0,0,0,10,0,5,5,0,0,0,10,0v-.42l3,.79V52A5.01,5.01,0,0,1,47,56Z" style="fill:#ff7956"/><path d="M47,56a5,5,0,0,1-5,5H38a5,5,0,0,0,3-9V46a4.941,4.941,0,0,0,1-3v-.42l3,.79V52A5.01,5.01,0,0,1,47,56Z" style="fill:#ff5023"/><path d="M42,42.58V43a5,5,0,0,1-10,0c2.21,0,4-.9,4-2Z" style="fill:#fee9ab"/><path d="M36,36.31V41c0,1.1-1.79,2-4,2s-4-.9-4-2V36.31a11.939,11.939,0,0,0,8,0Z" style="fill:#ffc477"/><path d="M32,43a5,5,0,0,1-10,0v-.42L28,41C28,42.1,29.79,43,32,43Z" style="fill:#fee9ab"/><path d="M22,61H9V52.17a8,8,0,0,1,5.96-7.74L19,43.37V52a5,5,0,0,0,3,9Z" style="fill:#ffc477"/><path d="M21.84,31.38l-.01.01A6,6,0,1,1,16,24a5.115,5.115,0,0,1,.56.03A3.975,3.975,0,0,0,20,26h.04a11.383,11.383,0,0,0,.32,1.94A11.709,11.709,0,0,0,21.84,31.38Z" style="fill:#ffd422"/><path d="M20.04,26H20a3.975,3.975,0,0,1-3.44-1.97A3.918,3.918,0,0,1,16,22a4.025,4.025,0,0,1,1.17-2.83,3.919,3.919,0,0,1,1.45-.91c.45.05.9.1,1.38.15V25C20,25.34,20.01,25.67,20.04,26Z" style="fill:#ffc477"/><path d="M26,21a3,3,0,0,0-3,3h2a1,1,0,0,1,2,0h2A3,3,0,0,0,26,21Z"/><path d="M38,23a1,1,0,0,1,1,1h2a3,3,0,0,0-6,0h2A1,1,0,0,1,38,23Z"/><path d="M49.294,43.463,37,40.229V36.977a13.173,13.173,0,0,0,4.9-3.6A6.938,6.938,0,0,0,48,37a7,7,0,0,0,.881-13.938,4.882,4.882,0,0,0-.971-4.146C52.364,18.2,56,17,56,15c0-.776-.006-2.81-9.69-4.147A13.015,13.015,0,0,0,34,2H30a13.015,13.015,0,0,0-12.31,8.853C8.006,12.19,8,14.224,8,15c0,2,3.638,3.2,8.093,3.916a4.874,4.874,0,0,0-.974,4.146,7,7,0,1,0,6.967,10.352c.229.269.466.532.717.783A12.952,12.952,0,0,0,27,37.01v3.219L14.7,43.463A9.02,9.02,0,0,0,8,52.17V61a1,1,0,0,0,1,1H55a1,1,0,0,0,1-1V52.17A9.019,9.019,0,0,0,49.294,43.463Zm-8.328-.123a3.983,3.983,0,0,1-7.847.586,4.944,4.944,0,0,0,3.5-1.731Zm-10.085.586a3.983,3.983,0,0,1-7.847-.586L27.385,42.2A4.944,4.944,0,0,0,30.881,43.926ZM48,25a5,5,0,0,1,0,10,4.953,4.953,0,0,1-4.754-3.525,12.782,12.782,0,0,0,1.6-4.561A4.976,4.976,0,0,0,47.973,25Zm-1.816-5.062c.02.028.041.054.063.081A2.977,2.977,0,0,1,45,24.81v-5.5l.226-.027A3.057,3.057,0,0,1,46.184,19.938ZM30,4h4A11.015,11.015,0,0,1,44.955,14H19.045A11.015,11.015,0,0,1,30,4ZM17.178,12.949A12.968,12.968,0,0,0,17,15a1,1,0,0,0,1,1H46a1,1,0,0,0,1-1,12.968,12.968,0,0,0-.178-2.051C51.754,13.7,53.556,14.6,53.948,15,52.963,16.13,45.17,18,32,18s-20.963-1.87-21.948-3C10.444,14.6,12.246,13.7,17.178,12.949ZM19,19.313v5.5a2.991,2.991,0,0,1-1.131-4.93,2.906,2.906,0,0,1,.91-.6ZM16,35a5,5,0,0,1,0-10l.03,0a5.012,5.012,0,0,0,3.119,1.909,12.984,12.984,0,0,0,1.594,4.6A4.953,4.953,0,0,1,16,35Zm5.036-9.092c-.028-.3-.036-.6-.036-.908V19.516c5.058.455,9.91.484,11,.484s5.942-.029,11-.484V25c0,.309-.008.608-.037.918A11.058,11.058,0,0,1,32,36,10.984,10.984,0,0,1,21.036,25.908ZM32,38a12.789,12.789,0,0,0,3-.37V41c0,.249-1.064,1-3,1s-3-.751-3-1V37.641A13.128,13.128,0,0,0,32,38ZM10,52.17A7.018,7.018,0,0,1,15.214,45.4L18,44.664v6.865A6.036,6.036,0,0,0,16,56a5.969,5.969,0,0,0,1.54,4H10ZM22,60a4,4,0,0,1-2.4-7.2A1,1,0,0,0,20,52V44.138l1.068-.281A5.992,5.992,0,0,0,32,46.31a5.992,5.992,0,0,0,10.932-2.453L44,44.138V52a1,1,0,0,0,.4.8A4,4,0,0,1,42,60Zm32,0H46.46A5.969,5.969,0,0,0,48,56a6.036,6.036,0,0,0-2-4.471V44.664l2.784.732A7.018,7.018,0,0,1,54,52.17Z"/><path d="M35,30H33a1,1,0,0,1-2,0H29a3,3,0,0,0,6,0Z"/></g></svg>
