<svg xmlns="http://www.w3.org/2000/svg" viewBox="0 0 228.41 135.45"><defs><style>.cls-1{fill:#fff;}.cls-2{fill:#cae2b7;}</style></defs><title>Ativo 1</title><g id="Camada_2" data-name="Camada 2"><g id="Camada_1-2" data-name="Camada 1"><path class="cls-1" d="M0,85H5.62l8.73,22.26L23,85h5.51l-12,29.17H12Z"/><path class="cls-1" d="M32.19,84.05h5.37v4.76H32.19Zm.2,8.11h5V114h-5Z"/><path class="cls-1" d="M45,108V96.46H42.19v-4.3H45v-6h5v6h5.88v4.3H50v10.72c0,1.94,1,2.73,2.69,2.73a6.66,6.66,0,0,0,3.1-.75v4.1a8.66,8.66,0,0,1-4.5,1.12C47.57,114.38,45,112.76,45,108Z"/><path class="cls-1" d="M59.49,107.71v-.08c0-4.72,3.68-7,9-7a18.25,18.25,0,0,1,5.88.91V101c0-3.1-1.91-4.76-5.42-4.76a15.13,15.13,0,0,0-6.25,1.37l-1.33-3.93a18.6,18.6,0,0,1,8.24-1.78c3.26,0,5.7.87,7.24,2.44s2.36,3.89,2.36,6.74v13H74.34v-2.73a8.87,8.87,0,0,1-7.11,3.19C63.13,114.46,59.49,112.1,59.49,107.71Zm15-1.57v-1.49a14.07,14.07,0,0,0-5-.87c-3.22,0-5.13,1.37-5.13,3.64v.09c0,2.11,1.86,3.31,4.26,3.31C71.94,110.82,74.47,108.91,74.47,106.14Z"/><path class="cls-2" d="M83.94,85h4.72l15.51,20V85h5v29h-4.26L89,93.4V114h-5Z"/><path class="cls-2" d="M114.6,107.71v-.08c0-4.72,3.68-7,9-7a18.18,18.18,0,0,1,5.87.91V101c0-3.1-1.9-4.76-5.42-4.76a15.2,15.2,0,0,0-6.25,1.37l-1.32-3.93a18.6,18.6,0,0,1,8.24-1.78c3.26,0,5.7.87,7.24,2.44s2.35,3.89,2.35,6.74v13h-4.88v-2.73a8.87,8.87,0,0,1-7.12,3.19C118.24,114.46,114.6,112.1,114.6,107.71Zm15-1.57v-1.49a14.07,14.07,0,0,0-5-.87c-3.23,0-5.13,1.37-5.13,3.64v.09c0,2.11,1.86,3.31,4.26,3.31C127.05,110.82,129.58,108.91,129.58,106.14Z"/><path class="cls-2" d="M141.16,108V96.46h-2.78v-4.3h2.78v-6h5v6H152v4.3h-5.88v10.72c0,1.94,1,2.73,2.69,2.73a6.66,6.66,0,0,0,3.1-.75v4.1a8.66,8.66,0,0,1-4.5,1.12C143.76,114.38,141.16,112.76,141.16,108Z"/><path class="cls-2" d="M156.88,106.06V92.16h5v12.41c0,3.39,1.69,5.3,4.67,5.3s4.92-2,4.92-5.38V92.16h5.05V114h-5.05v-3.39a7.84,7.84,0,0,1-6.82,3.85C159.74,114.46,156.88,111.15,156.88,106.06Z"/><path class="cls-2" d="M182.78,92.16h5v4.92c1.36-3.27,3.89-5.5,7.74-5.34V97h-.29c-4.39,0-7.45,2.86-7.45,8.65V114h-5Z"/><path class="cls-2" d="M197.38,107.71v-.08c0-4.72,3.68-7,9-7a18.13,18.13,0,0,1,5.87.91V101c0-3.1-1.9-4.76-5.42-4.76a15.12,15.12,0,0,0-6.24,1.37l-1.33-3.93a18.6,18.6,0,0,1,8.24-1.78c3.26,0,5.7.87,7.24,2.44s2.35,3.89,2.35,6.74v13h-4.88v-2.73a8.87,8.87,0,0,1-7.12,3.19C201,114.46,197.38,112.1,197.38,107.71Zm15-1.57v-1.49a14.07,14.07,0,0,0-5-.87c-3.22,0-5.13,1.37-5.13,3.64v.09c0,2.11,1.86,3.31,4.26,3.31C209.83,110.82,212.36,108.91,212.36,106.14Z"/><path class="cls-2" d="M223.4,83.8h5V114h-5Z"/><path class="cls-1" d="M42.11,133.27l.94-1.11a6.36,6.36,0,0,0,4.59,1.89c1.8,0,3-1,3-2.27v0c0-1.25-.67-2-3.49-2.55-3.08-.67-4.5-1.67-4.5-3.87v0c0-2.1,1.86-3.65,4.41-3.65a7,7,0,0,1,4.71,1.64l-.88,1.17A5.92,5.92,0,0,0,47,123c-1.74,0-2.85,1-2.85,2.16v0c0,1.26.68,2,3.63,2.6s4.37,1.74,4.37,3.79v0c0,2.3-1.92,3.79-4.58,3.79A7.86,7.86,0,0,1,42.11,133.27Z"/><path class="cls-1" d="M54.26,132.35v0c0-2.08,1.72-3.2,4.23-3.2a10.94,10.94,0,0,1,3,.42v-.34c0-1.78-1.1-2.7-3-2.7a6.92,6.92,0,0,0-3,.73L55.14,126a8.13,8.13,0,0,1,3.6-.82,4.34,4.34,0,0,1,3.2,1.09,3.91,3.91,0,0,1,1,2.89v6.05H61.54v-1.49a4.35,4.35,0,0,1-3.59,1.7C56.12,135.43,54.26,134.38,54.26,132.35Zm7.29-.77v-1a10,10,0,0,0-2.91-.43c-1.85,0-2.89.81-2.89,2.05v0c0,1.25,1.15,2,2.49,2C60.06,134.26,61.55,133.15,61.55,131.58Z"/><path class="cls-1" d="M66,131.47v-6.15h1.47v5.79c0,1.83,1,3,2.74,3a2.92,2.92,0,0,0,3-3.1v-5.67h1.45v9.9H73.13V133.5a3.78,3.78,0,0,1-3.39,1.93A3.62,3.62,0,0,1,66,131.47Zm5.51-10.42,1.53.71-2.18,2.07H69.66Z"/><path class="cls-1" d="M77.33,130.3v0a4.86,4.86,0,0,1,4.73-5.15,4.46,4.46,0,0,1,3.79,2.11v-6h1.48v14H85.85v-2a4.43,4.43,0,0,1-3.79,2.2A4.83,4.83,0,0,1,77.33,130.3Zm8.58,0v0a3.68,3.68,0,0,0-3.58-3.81,3.49,3.49,0,0,0-3.48,3.81v0a3.57,3.57,0,0,0,3.48,3.83A3.69,3.69,0,0,0,85.91,130.28Z"/><path class="cls-1" d="M90,130.3v0a4.88,4.88,0,0,1,4.75-5.15c2.93,0,4.61,2.34,4.61,5.23a3.7,3.7,0,0,1,0,.48H91.51A3.46,3.46,0,0,0,95,134.17a4.1,4.1,0,0,0,3.12-1.4l.92.82A5.12,5.12,0,0,1,95,135.45,4.92,4.92,0,0,1,90,130.3Zm7.87-.57c-.15-1.8-1.19-3.37-3.16-3.37a3.42,3.42,0,0,0-3.22,3.37Z"/><path class="cls-1" d="M107.12,130.3v0a4.88,4.88,0,0,1,4.74-5.15c2.93,0,4.62,2.34,4.62,5.23a3.7,3.7,0,0,1,0,.48h-7.85a3.46,3.46,0,0,0,3.48,3.35,4.13,4.13,0,0,0,3.13-1.4l.91.82a5.1,5.1,0,0,1-4.07,1.86A4.92,4.92,0,0,1,107.12,130.3Zm7.86-.57c-.15-1.8-1.18-3.37-3.16-3.37a3.4,3.4,0,0,0-3.21,3.37Z"/><path class="cls-1" d="M125.07,121.82h9.69v1.38h-8.18v4.57h7.32v1.38h-7.32v4.69h8.28v1.38h-9.79Z"/><path class="cls-1" d="M136.84,134l.75-1.05a5.78,5.78,0,0,0,3.42,1.26c1.19,0,2.05-.61,2.05-1.57v0c0-1-1.17-1.38-2.47-1.74-1.55-.44-3.27-1-3.27-2.8v0c0-1.7,1.42-2.83,3.37-2.83a6.79,6.79,0,0,1,3.56,1.09l-.67,1.11a5.63,5.63,0,0,0-2.93-1c-1.17,0-1.91.62-1.91,1.44v0c0,.94,1.22,1.3,2.54,1.7,1.53.46,3.18,1.06,3.18,2.84v0c0,1.88-1.55,3-3.52,3A6.8,6.8,0,0,1,136.84,134Z"/><path class="cls-1" d="M147.53,132.6v-6h-1.38v-1.3h1.38v-3H149v3h3.14v1.3H149v5.79a1.46,1.46,0,0,0,1.66,1.64,3.1,3.1,0,0,0,1.44-.34V135a3.69,3.69,0,0,1-1.78.42A2.52,2.52,0,0,1,147.53,132.6Z"/><path class="cls-1" d="M153.86,130.3v0a4.88,4.88,0,0,1,4.75-5.15c2.93,0,4.61,2.34,4.61,5.23a3.7,3.7,0,0,1,0,.48h-7.85a3.46,3.46,0,0,0,3.49,3.35,4.11,4.11,0,0,0,3.12-1.4l.92.82a5.13,5.13,0,0,1-4.08,1.86A4.92,4.92,0,0,1,153.86,130.3Zm7.87-.57c-.15-1.8-1.19-3.37-3.16-3.37a3.41,3.41,0,0,0-3.22,3.37Zm-1.94-8.68,1.54.71-2.19,2.07H158Z"/><path class="cls-1" d="M166.33,132.6v-6H165v-1.3h1.38v-3h1.48v3H171v1.3h-3.14v5.79a1.46,1.46,0,0,0,1.66,1.64,3.1,3.1,0,0,0,1.44-.34V135a3.69,3.69,0,0,1-1.78.42A2.52,2.52,0,0,1,166.33,132.6Z"/><path class="cls-1" d="M173.6,121.53h1.68v1.63H173.6Zm.09,3.79h1.48v9.9h-1.48Z"/><path class="cls-1" d="M178,130.32v0a5.16,5.16,0,0,1,9-3.41l-1,1a4,4,0,0,0-3-1.5,3.66,3.66,0,0,0-3.54,3.83v0a3.7,3.7,0,0,0,3.64,3.85,4.08,4.08,0,0,0,3-1.47l.94.88a5.12,5.12,0,0,1-9.11-3.22Z"/><path class="cls-1" d="M188.8,132.35v0c0-2.08,1.72-3.2,4.23-3.2a10.81,10.81,0,0,1,3,.42v-.34c0-1.78-1.09-2.7-2.95-2.7a7,7,0,0,0-3,.73l-.43-1.21a8.13,8.13,0,0,1,3.6-.82,4.3,4.3,0,0,1,3.19,1.09,3.91,3.91,0,0,1,1,2.89v6.05h-1.42v-1.49a4.34,4.34,0,0,1-3.58,1.7C190.65,135.43,188.8,134.38,188.8,132.35Zm7.29-.77v-1a10,10,0,0,0-2.91-.43c-1.86,0-2.89.81-2.89,2.05v0c0,1.25,1.15,2,2.49,2C194.6,134.26,196.09,133.15,196.09,131.58Z"/><path class="cls-1" d="M154.08,45a65.17,65.17,0,0,1-4.58,5.72c-1.6,1.83-3.27,3.59-5,5.31s-3.48,3.39-5.31,5a67,67,0,0,1-5.72,4.57,67.11,67.11,0,0,1,4.57-5.73q2.41-2.73,5-5.3t5.31-5A67,67,0,0,1,154.08,45Z"/><path class="cls-1" d="M141.6,38a19.17,19.17,0,0,0-7.43,1.49l-4.65-6.8a19.44,19.44,0,1,0-28.06.45l-4.67,6.52A19.34,19.34,0,0,0,89,38H69.45V57.5a19.52,19.52,0,1,0,34-13l4.93-6.89a19.44,19.44,0,0,0,14.3-.23l4.64,6.8A19.5,19.5,0,1,0,161.11,57.5V38ZM105.52,57.5a16.56,16.56,0,0,1-33.11,0V41H89A16.65,16.65,0,0,1,105.52,57.5ZM115.28,35a15.56,15.56,0,1,1,15.55-15.55A15.57,15.57,0,0,1,115.28,35Zm42.44,22.5A16.12,16.12,0,1,1,141.6,41.38h16.12Z"/><path class="cls-1" d="M89.16,71.31A10.3,10.3,0,0,1,83.64,71a12.16,12.16,0,0,1-7.8-7.8,10.19,10.19,0,0,1-.28-5.52,21.24,21.24,0,0,0,1.78,4.9,17,17,0,0,0,2.93,4,16.63,16.63,0,0,0,4,2.93A21.17,21.17,0,0,0,89.16,71.31Z"/></g></g></svg>