<svg xmlns="http://www.w3.org/2000/svg" viewBox="0 0 300 164.85"><defs><style>.cls-1{font-size:11.59px;fill:#b3b3b3;font-family:Roboto-Regular, Roboto;}.cls-2{fill:#fff300;}.cls-3{fill:#2b59b7;}</style></defs><title>logo_ibbppta</title><g id="Camada_3" data-name="Camada 3"><text class="cls-1" transform="translate(17.81 -166.91) rotate(-73.03)">A</text><text class="cls-1" transform="matrix(0.34, -0.94, 0.94, 0.34, 19.94, -173.82)">s</text><text class="cls-1" transform="translate(21.96 -179.46) rotate(-67.73)">s</text><text class="cls-1" transform="translate(24.25 -184.98) rotate(-65.87)">i</text><text class="cls-1" transform="translate(25.34 -187.62) rotate(-63.16)">m</text><text class="cls-1" transform="matrix(0.49, -0.87, 0.87, 0.49, 29.94, -196.54)"> </text><text class="cls-1" transform="translate(31.29 -198.99) rotate(-58.51)">q</text><text class="cls-1" transform="translate(34.69 -204.53) rotate(-55.8)">u</text><text class="cls-1" transform="translate(38.34 -209.9) rotate(-53.22)">e</text><text class="cls-1" transform="matrix(0.62, -0.78, 0.78, 0.62, 41.97, -214.7)">,</text><text class="cls-1" transform="matrix(0.65, -0.76, 0.76, 0.65, 43.33, -216.46)"> </text><text class="cls-1" transform="translate(45.13 -218.65) rotate(-48.68)">s</text><text class="cls-1" transform="translate(49.07 -223.13) rotate(-46.21)">e</text><text class="cls-1" transform="matrix(0.71, -0.7, 0.7, 0.71, 53.23, -227.44)"> </text><text class="cls-1" transform="matrix(0.74, -0.68, 0.68, 0.74, 55.25, -229.46)">a</text><text class="cls-1" transform="translate(59.91 -233.69) rotate(-40.54)">l</text><text class="cls-1" transform="matrix(0.78, -0.62, 0.62, 0.78, 62.05, -235.56)">g</text><text class="cls-1" transform="translate(67.14 -239.62) rotate(-35.84)">u</text><text class="cls-1" transform="translate(72.41 -243.42) rotate(-33.22)">é</text><text class="cls-1" transform="matrix(0.87, -0.5, 0.5, 0.87, 77.36, -246.74)">m</text><text class="cls-1" transform="translate(86.09 -251.66) rotate(-27.16)"> </text><text class="cls-1" transform="translate(88.58 -252.96) rotate(-25.31)">e</text><text class="cls-1" transform="translate(93.98 -255.52) rotate(-22.81)">s</text><text class="cls-1" transform="translate(99.52 -257.83) rotate(-20.75)">t</text><text class="cls-1" transform="translate(103.09 -259.21) rotate(-18.63)">á</text><text class="cls-1" transform="translate(109.06 -261.19) rotate(-16.73)"> </text><text class="cls-1" transform="translate(111.78 -262.03) rotate(-14.89)">e</text><text class="cls-1" transform="translate(117.51 -263.62) rotate(-11.56)">m</text><text class="cls-1" transform="matrix(0.99, -0.15, 0.15, 0.99, 127.35, -265.55)"> </text><text class="cls-1" transform="translate(130.12 -266.03) rotate(-6.81)">C</text><text class="cls-1" transform="translate(137.34 -266.86) rotate(-4.47)">r</text><text class="cls-1" transform="translate(141.35 -267.17) rotate(-3.04)">i</text><text class="cls-1" transform="translate(144.19 -267.35) rotate(-1.21)">s</text><text class="cls-1" transform="translate(150.16 -267.45) rotate(0.83)">t</text><text class="cls-1" transform="translate(154.02 -267.42) rotate(2.99)">o</text><text class="cls-1" transform="matrix(1, 0.08, -0.08, 1, 160.51, -267.05)">,</text><text class="cls-1" transform="translate(162.76 -266.87) rotate(5.87)"> </text><text class="cls-1" transform="translate(165.55 -266.61) rotate(7.81)">n</text><text class="cls-1" transform="translate(172 -265.73) rotate(10.54)">o</text><text class="cls-1" transform="translate(178.29 -264.55) rotate(13.06)">v</text><text class="cls-1" transform="matrix(0.96, 0.27, -0.27, 0.96, 183.81, -263.29)">a</text><text class="cls-1" transform="translate(189.88 -261.57) rotate(17.47)"> </text><text class="cls-1" transform="translate(192.59 -260.74) rotate(19.33)">c</text><text class="cls-1" transform="translate(198.24 -258.74) rotate(21.43)">r</text><text class="cls-1" transform="matrix(0.92, 0.39, -0.39, 0.92, 201.96, -257.28)">i</text><text class="cls-1" transform="translate(204.59 -256.2) rotate(24.8)">a</text><text class="cls-1" transform="matrix(0.89, 0.45, -0.45, 0.89, 210.31, -253.53)">t</text><text class="cls-1" transform="matrix(0.87, 0.49, -0.49, 0.87, 213.75, -251.81)">u</text><text class="cls-1" transform="translate(219.42 -248.63) rotate(31.31)">r</text><text class="cls-1" transform="translate(222.83 -246.58) rotate(33.45)">a</text><text class="cls-1" transform="translate(228.06 -243.09) rotate(35.34)"> </text><text class="cls-1" transform="matrix(0.8, 0.6, -0.6, 0.8, 230.38, -241.48)">é</text><text class="cls-1" transform="matrix(0.78, 0.62, -0.62, 0.78, 235.17, -237.8)">;</text><text class="cls-1" transform="matrix(0.76, 0.65, -0.65, 0.76, 237.44, -235.99)"> </text><text class="cls-1" transform="matrix(0.74, 0.67, -0.67, 0.74, 239.6, -234.2)">2</text><text class="cls-1" transform="translate(244.38 -229.84) rotate(44.01)"> </text><text class="cls-1" transform="translate(246.42 -227.93) rotate(46.1)">C</text><text class="cls-1" transform="translate(251.44 -222.7) rotate(48.97)">o</text><text class="cls-1" transform="matrix(0.63, 0.78, -0.78, 0.63, 255.7, -217.78)">r</text><text class="cls-1" transform="matrix(0.61, 0.79, -0.79, 0.61, 258.21, -214.65)">í</text><text class="cls-1" transform="translate(259.95 -212.42) rotate(54.58)">n</text><text class="cls-1" transform="translate(263.71 -207.1) rotate(56.76)">t</text><text class="cls-1" transform="translate(265.82 -203.86) rotate(58.18)">i</text><text class="cls-1" transform="translate(267.36 -201.45) rotate(60.16)">o</text><text class="cls-1" transform="translate(270.59 -195.8) rotate(62.78)">s</text><text class="cls-1" transform="translate(273.31 -190.47) rotate(64.63)"> </text><text class="cls-1" transform="translate(274.54 -187.95) rotate(66.57)">5</text><text class="cls-1" transform="translate(277.08 -182) rotate(68.53)">:</text><text class="cls-1" transform="translate(278.16 -179.35) rotate(70.47)">1</text><text class="cls-1" transform="translate(280.31 -173.29) rotate(73.16)">7</text></g><g id="Camada_5" data-name="Camada 5"><path class="cls-2" d="M187.52,129.34l60.92-82.68a149.87,149.87,0,0,0-22.39-16.38L163.9,114.63V10c-4.58-.42-9.21-.65-13.9-.65s-9.32.23-13.9.65V114.5L73.77,30.39A149.18,149.18,0,0,0,51.4,46.8l60.87,82.12L14.79,96.26a148,148,0,0,0-7.45,20A273.56,273.56,0,0,0,49.65,137.1L74,145.26a277.66,277.66,0,0,0,76,10.54,277.53,277.53,0,0,0,77.59-11l25.19-8.67a273.74,273.74,0,0,0,39.88-19.82A147.37,147.37,0,0,0,285,95.8Z"/><path class="cls-3" d="M143.56,89.26a4.43,4.43,0,0,0-.91-1.82c-1.62-2.06-3-4.33-4.73-6.28-4.12-4.59-3.11-4-5.18-6a37.69,37.69,0,0,0-7.87-6.28,27.6,27.6,0,0,0-7.28-3.18,32.41,32.41,0,0,0-6.55-.91,50.6,50.6,0,0,0-7.19,0,40.84,40.84,0,0,0-7.14,1.09,20.94,20.94,0,0,0-6,2.19,11.86,11.86,0,0,0-4.27,3.59,12.35,12.35,0,0,0-1.87,4.91c-.17.82-.24,1.39-.36,6.51,0,1.61-.1,4.16-.09,7.41,0,.44,0,1.73.09,3.41a20.82,20.82,0,0,0,.41,3.82,14.89,14.89,0,0,0,1,2.91,18.47,18.47,0,0,0,2.22,3.65,16.55,16.55,0,0,0,4.57,4.3,13.49,13.49,0,0,0,5.77,2.12,12.66,12.66,0,0,0,2.52,0c-.57.6-1.64,1.35-2.83,2.39a21.8,21.8,0,0,0-3,2.93,10,10,0,0,0-2,4.64,13.41,13.41,0,0,0,.13,5.32,26.16,26.16,0,0,0,2.59,7.37,46.56,46.56,0,0,0,3.83,6c3.06,4.38,4.6,6.58,6.82,8.59a25.7,25.7,0,0,0,6.41,4.37,14.43,14.43,0,0,0,5.46,1.64,13.71,13.71,0,0,0,7-1.5,18.92,18.92,0,0,0,5.32-4,66.49,66.49,0,0,0,8.19-10c1.84-2.59,4.12-5.86,6.69-9.69-.44-12-1.38-37.81-1.51-39A3.25,3.25,0,0,0,143.56,89.26ZM96.74,82.48c2.66-5,12.27-5.2,21.46-.36S132.68,95,130,100s-12.27,5.2-21.46.36S94.08,87.53,96.74,82.48Zm27.75,51.65c-6.38,3.36-13,3.25-14.89-.25s1.83-9.06,8.2-12.42,13-3.25,14.88.25S130.86,130.77,124.49,134.13Z"/><circle class="cls-3" cx="150" cy="80.66" r="4.98"/><path class="cls-3" d="M150,89.23a4.17,4.17,0,0,0-4.16,4.17l1.7,37.39a2.46,2.46,0,0,0,4.92,0l1.7-37.39A4.17,4.17,0,0,0,150,89.23Z"/><path class="cls-3" d="M215.61,83c-.12-5.12-.19-5.69-.36-6.51a12.2,12.2,0,0,0-1.87-4.91A11.86,11.86,0,0,0,209.11,68a20.94,20.94,0,0,0-6.05-2.19,40.57,40.57,0,0,0-7.14-1.09,50.6,50.6,0,0,0-7.19,0,32.61,32.61,0,0,0-6.55.91,27.6,27.6,0,0,0-7.28,3.18A37.69,37.69,0,0,0,167,75.11c-2.07,2.07-1.06,1.46-5.18,6-1.75,2-3.11,4.22-4.73,6.28a4.43,4.43,0,0,0-.91,1.82,5.18,5.18,0,0,0-.09.54c-.13,1.22-1.07,27-1.5,39,2.56,3.83,4.84,7.1,6.68,9.69a66.49,66.49,0,0,0,8.19,10,18.92,18.92,0,0,0,5.32,4,13.71,13.71,0,0,0,7,1.5,14.43,14.43,0,0,0,5.46-1.64,25.7,25.7,0,0,0,6.41-4.37c2.22-2,3.76-4.21,6.83-8.59a47.43,47.43,0,0,0,3.82-6,26.16,26.16,0,0,0,2.59-7.37,13.39,13.39,0,0,0,.14-5.32A10.14,10.14,0,0,0,205,116a21.8,21.8,0,0,0-3-2.93c-1.19-1-2.25-1.79-2.83-2.39a12.76,12.76,0,0,0,2.53,0,13.49,13.49,0,0,0,5.76-2.12,16.55,16.55,0,0,0,4.57-4.3,18.47,18.47,0,0,0,2.22-3.65,14.25,14.25,0,0,0,1-2.91,20.82,20.82,0,0,0,.41-3.82c.09-1.68.09-3,.09-3.41C215.71,87.19,215.65,84.64,215.61,83Zm-25.44,50.85c-1.85,3.5-8.51,3.61-14.89.25s-10-8.93-8.19-12.42,8.51-3.62,14.88-.25S192,130.38,190.17,133.88Zm1-33.48c-9.19,4.84-18.79,4.68-21.46-.36S172.38,87,181.57,82.12s18.8-4.68,21.46.36S200.4,95.55,191.21,100.4Z"/></g></svg>