<svg xmlns="http://www.w3.org/2000/svg" viewBox="0 0 430.69 92.73"><defs><style>.cls-1{fill:#fff;}.cls-2{fill:#cae2b7;}</style></defs><title>Ativo 8</title><g id="Camada_2" data-name="Camada 2"><g id="Camada_1-2" data-name="Camada 1"><path class="cls-1" d="M118.74,16h7.69L138.35,46.4,150.21,16h7.51L141.34,55.84h-6.16Z"/><path class="cls-1" d="M162.7,14.65H170v6.5H162.7ZM163,25.73h6.84V55.56H163Z"/><path class="cls-1" d="M180.16,47.31V31.6h-3.79V25.73h3.79v-8.2H187v8.2h8V31.6h-8V46.23c0,2.66,1.36,3.73,3.68,3.73a9.25,9.25,0,0,0,4.23-1v5.59a11.82,11.82,0,0,1-6.16,1.52C183.72,56.06,180.16,53.86,180.16,47.31Z"/><path class="cls-1" d="M200,47v-.11c0-6.45,5-9.61,12.32-9.61a25.07,25.07,0,0,1,8,1.24v-.73c0-4.24-2.6-6.5-7.4-6.5a20.73,20.73,0,0,0-8.53,1.87l-1.81-5.37a25.45,25.45,0,0,1,11.24-2.43c4.46,0,7.8,1.19,9.89,3.33s3.22,5.31,3.22,9.21V55.56h-6.67V51.83a12.11,12.11,0,0,1-9.71,4.35C205,56.18,200,53,200,47Zm20.45-2.15v-2a18.91,18.91,0,0,0-6.78-1.19c-4.4,0-7,1.87-7,5v.12c0,2.88,2.54,4.52,5.82,4.52C217,51.21,220.44,48.61,220.44,44.82Z"/><path class="cls-2" d="M233.39,16h6.44L261,43.35V16h6.83V55.56H262l-21.8-28.14V55.56h-6.84Z"/><path class="cls-2" d="M275.26,47v-.11c0-6.45,5-9.61,12.31-9.61a25.08,25.08,0,0,1,8,1.24v-.73c0-4.24-2.6-6.5-7.4-6.5a20.82,20.82,0,0,0-8.54,1.87l-1.8-5.37a25.39,25.39,0,0,1,11.24-2.43c4.46,0,7.8,1.19,9.89,3.33s3.22,5.31,3.22,9.21V55.56h-6.67V51.83a12.12,12.12,0,0,1-9.72,4.35C280.23,56.18,275.26,53,275.26,47Zm20.45-2.15v-2a18.91,18.91,0,0,0-6.78-1.19c-4.41,0-7,1.87-7,5v.12c0,2.88,2.55,4.52,5.82,4.52C292.26,51.21,295.71,48.61,295.71,44.82Z"/><path class="cls-2" d="M311.53,47.31V31.6h-3.78V25.73h3.78v-8.2h6.84v8.2h8V31.6h-8V46.23c0,2.66,1.35,3.73,3.67,3.73a9.32,9.32,0,0,0,4.24-1v5.59a11.84,11.84,0,0,1-6.16,1.52C315.09,56.06,311.53,53.86,311.53,47.31Z"/><path class="cls-2" d="M333,44.71v-19h6.84V42.67c0,4.64,2.31,7.24,6.38,7.24s6.72-2.72,6.72-7.35V25.73h6.9V55.56h-6.9V50.92c-1.92,2.83-4.69,5.26-9.32,5.26C336.9,56.18,333,51.66,333,44.71Z"/><path class="cls-2" d="M368.37,25.73h6.84v6.72c1.86-4.46,5.31-7.51,10.56-7.29v7.23h-.39c-6,0-10.17,3.9-10.17,11.81V55.56h-6.84Z"/><path class="cls-2" d="M388.32,47v-.11c0-6.45,5-9.61,12.31-9.61a25,25,0,0,1,8,1.24v-.73c0-4.24-2.59-6.5-7.4-6.5a20.77,20.77,0,0,0-8.53,1.87l-1.8-5.37a25.39,25.39,0,0,1,11.24-2.43c4.46,0,7.79,1.19,9.88,3.33s3.22,5.31,3.22,9.21V55.56H408.6V51.83a12.13,12.13,0,0,1-9.72,4.35C393.29,56.18,388.32,53,388.32,47Zm20.45-2.15v-2A18.91,18.91,0,0,0,402,41.6c-4.41,0-7,1.87-7,5v.12c0,2.88,2.55,4.52,5.82,4.52C405.32,51.21,408.77,48.61,408.77,44.82Z"/><path class="cls-2" d="M423.85,14.31h6.84V55.56h-6.84Z"/><path class="cls-1" d="M176.25,81.86l1.28-1.51a8.75,8.75,0,0,0,6.28,2.59c2.46,0,4.08-1.31,4.08-3.12v0c0-1.7-.91-2.67-4.76-3.48C178.92,75.37,177,74,177,71v0c0-2.88,2.54-5,6-5a9.52,9.52,0,0,1,6.44,2.25l-1.21,1.59a8,8,0,0,0-5.28-2c-2.38,0-3.9,1.31-3.9,3v0c0,1.73.94,2.7,5,3.56s6,2.38,6,5.18v0c0,3.14-2.62,5.18-6.26,5.18A10.69,10.69,0,0,1,176.25,81.86Z"/><path class="cls-1" d="M192.85,80.61v-.06c0-2.85,2.35-4.36,5.78-4.36a14.45,14.45,0,0,1,4.16.57v-.47c0-2.43-1.49-3.69-4-3.69a9.51,9.51,0,0,0-4.11,1l-.6-1.64A11.18,11.18,0,0,1,199,70.82a6,6,0,0,1,4.37,1.49,5.38,5.38,0,0,1,1.38,4v8.27h-1.93v-2a5.92,5.92,0,0,1-4.89,2.33C195.38,84.82,192.85,83.38,192.85,80.61Zm10-1V78.25a14,14,0,0,0-4-.57c-2.54,0-4,1.1-4,2.8v0c0,1.7,1.57,2.69,3.4,2.69C200.77,83.22,202.81,81.71,202.81,79.56Z"/><path class="cls-1" d="M208.81,79.4V71h2v7.91c0,2.51,1.36,4.08,3.74,4.08a4,4,0,0,0,4.05-4.24V71h2V84.53h-2V82.18A5.15,5.15,0,0,1,214,84.82C210.72,84.82,208.81,82.62,208.81,79.4Zm7.54-14.23,2.09,1-3,2.82h-1.57Z"/><path class="cls-1" d="M224.36,77.81v0c0-4.43,3.22-7,6.46-7A6.12,6.12,0,0,1,236,73.59V65.43h2v19.1h-2V81.81a6.08,6.08,0,0,1-5.18,3C227.58,84.82,224.36,82.26,224.36,77.81Zm11.72,0v0a5,5,0,0,0-4.89-5.21c-2.62,0-4.76,1.94-4.76,5.21v0c0,3.19,2.22,5.23,4.76,5.23A5,5,0,0,0,236.08,77.78Z"/><path class="cls-1" d="M241.69,77.81v0c0-3.9,2.74-7,6.48-7,4,0,6.31,3.19,6.31,7.14a4.5,4.5,0,0,1,0,.65H243.73a4.72,4.72,0,0,0,4.76,4.58,5.59,5.59,0,0,0,4.26-1.91L254,82.31a7,7,0,0,1-5.57,2.54A6.73,6.73,0,0,1,241.69,77.81ZM252.44,77c-.21-2.46-1.62-4.6-4.32-4.6-2.35,0-4.13,2-4.39,4.6Z"/><path class="cls-1" d="M265,77.81v0c0-3.9,2.75-7,6.49-7,4,0,6.31,3.19,6.31,7.14a4.5,4.5,0,0,1,0,.65H267.07a4.73,4.73,0,0,0,4.77,4.58,5.61,5.61,0,0,0,4.26-1.91l1.25,1.13a7,7,0,0,1-5.57,2.54A6.73,6.73,0,0,1,265,77.81ZM275.79,77c-.21-2.46-1.63-4.6-4.32-4.6-2.36,0-4.14,2-4.4,4.6Z"/><path class="cls-1" d="M289.56,66.22H302.8V68.1H291.62v6.25h10v1.89h-10v6.41h11.31v1.88H289.56Z"/><path class="cls-1" d="M305.63,82.8l1-1.43a8,8,0,0,0,4.68,1.72c1.62,0,2.8-.83,2.8-2.14v-.06c0-1.36-1.59-1.88-3.37-2.38-2.12-.6-4.48-1.33-4.48-3.82v0c0-2.33,1.94-3.87,4.61-3.87a9.25,9.25,0,0,1,4.86,1.49l-.91,1.52a7.69,7.69,0,0,0-4-1.31c-1.59,0-2.61.84-2.61,2v0c0,1.29,1.67,1.78,3.48,2.33,2.09.63,4.34,1.44,4.34,3.88v0c0,2.56-2.12,4.05-4.81,4.05A9.3,9.3,0,0,1,305.63,82.8Z"/><path class="cls-1" d="M320.23,81V72.78h-1.88V71h1.88V66.92h2V71h4.29v1.78h-4.29v7.91a2,2,0,0,0,2.27,2.25,4.29,4.29,0,0,0,2-.48v1.73a5.06,5.06,0,0,1-2.44.58C321.88,84.77,320.23,83.69,320.23,81Z"/><path class="cls-1" d="M328.87,77.81v0c0-3.9,2.75-7,6.49-7,4,0,6.31,3.19,6.31,7.14a4.5,4.5,0,0,1,0,.65H330.91a4.73,4.73,0,0,0,4.76,4.58,5.61,5.61,0,0,0,4.27-1.91l1.25,1.13a7,7,0,0,1-5.57,2.54A6.73,6.73,0,0,1,328.87,77.81ZM339.63,77c-.22-2.46-1.63-4.6-4.32-4.6-2.36,0-4.14,2-4.4,4.6ZM337,65.17l2.1,1-3,2.82h-1.57Z"/><path class="cls-1" d="M345.91,81V72.78H344V71h1.88V66.92h2V71h4.3v1.78h-4.3v7.91a2,2,0,0,0,2.28,2.25,4.23,4.23,0,0,0,2-.48v1.73a5,5,0,0,1-2.43.58C347.56,84.77,345.91,83.69,345.91,81Z"/><path class="cls-1" d="M355.83,65.82h2.3v2.23h-2.3ZM356,71h2V84.53h-2Z"/><path class="cls-1" d="M361.82,77.83v0a7.05,7.05,0,0,1,12.35-4.66l-1.33,1.42a5.45,5.45,0,0,0-4.11-2,5,5,0,0,0-4.84,5.23v0a5.06,5.06,0,0,0,5,5.26A5.6,5.6,0,0,0,373,81l1.28,1.2a7,7,0,0,1-12.46-4.4Z"/><path class="cls-1" d="M376.59,80.61v-.06c0-2.85,2.35-4.36,5.78-4.36a14.4,14.4,0,0,1,4.16.57v-.47c0-2.43-1.49-3.69-4-3.69a9.51,9.51,0,0,0-4.11,1l-.6-1.64a11.18,11.18,0,0,1,4.92-1.13,6,6,0,0,1,4.37,1.49,5.38,5.38,0,0,1,1.38,4v8.27h-1.93v-2a5.92,5.92,0,0,1-4.89,2.33C379.12,84.82,376.59,83.38,376.59,80.61Zm10-1V78.25a14,14,0,0,0-4-.57c-2.54,0-3.95,1.1-3.95,2.8v0c0,1.7,1.57,2.69,3.4,2.69C384.51,83.22,386.55,81.71,386.55,79.56Z"/><path class="cls-1" d="M101.91,54.2a82.45,82.45,0,0,1-5.51,6.9q-2.91,3.28-6,6.39t-6.39,6A80.21,80.21,0,0,1,77.1,79a80.21,80.21,0,0,1,5.5-6.89q2.91-3.3,6-6.39t6.39-6A82.45,82.45,0,0,1,101.91,54.2Z"/><path class="cls-1" d="M86.87,45.74a23.2,23.2,0,0,0-8.94,1.79l-5.59-8.18a23.42,23.42,0,1,0-33.79.54l-5.63,7.85a23.22,23.22,0,0,0-9.42-2H0v23.5A23.5,23.5,0,1,0,41,53.62l5.94-8.29a23.44,23.44,0,0,0,17.21-.28l5.6,8.19A23.44,23.44,0,0,0,86.87,92.73a23.61,23.61,0,0,0,23.5-23.49V45.74ZM43.43,69.24a19.88,19.88,0,0,1-34,14.06A19.77,19.77,0,0,1,3.57,69.24V49.31H23.5A20,20,0,0,1,43.43,69.24Zm11.75-27.1A18.73,18.73,0,1,1,73.91,23.41,18.75,18.75,0,0,1,55.18,42.14Zm51.1,27.1A19.41,19.41,0,1,1,86.87,49.83h19.41Z"/><path class="cls-1" d="M23.74,85.86a12.47,12.47,0,0,1-6.65-.34,14.68,14.68,0,0,1-9.4-9.4,12.43,12.43,0,0,1-.34-6.64,25.57,25.57,0,0,0,2.16,5.89A19.8,19.8,0,0,0,13,80.18a20,20,0,0,0,4.81,3.53A25.18,25.18,0,0,0,23.74,85.86Z"/></g></g></svg>