<svg xmlns="http://www.w3.org/2000/svg" viewBox="0 0 65.3 65.31"><defs><style>.cls-1{opacity:0.36;}.cls-2,.cls-3,.cls-4{fill:none;stroke:#fff;stroke-miterlimit:10;}.cls-2{stroke-width:2px;}.cls-3,.cls-4{stroke-linecap:round;}.cls-3{stroke-dasharray:0.5 3;}.cls-4{stroke-dasharray:0.5 5;}.cls-5{fill:#fff;}</style></defs><title>magnetica-ico</title><g id="Camada_2" data-name="Camada 2"><g id="Camada_1-2" data-name="Camada 1"><g class="cls-1"><path class="cls-2" d="M7.93,57.37a24,24,0,0,0,33.74,0L57.73,41.31,47.29,30.87l-16,16h0l0,0a9.11,9.11,0,0,1-12.84,0l-.05,0L7.8,57.22Z"/><path class="cls-2" d="M7.8,57.22,18.33,46.88a9.12,9.12,0,0,1,.05-12.8L34.44,18,24,7.58,7.93,23.64A24,24,0,0,0,7.8,57.22Z"/><path class="cls-3" d="M58.53,37.3a21.68,21.68,0,0,0,.13-30.38l-.13-.14A21.69,21.69,0,0,0,28,6.78"/><path class="cls-3" d="M55.32,34.08a17.12,17.12,0,0,0,.1-24l-.1-.11a17.12,17.12,0,0,0-24.1,0"/><path class="cls-4" d="M52.11,30.87a12.55,12.55,0,0,0,.07-17.59.27.27,0,0,1-.07-.08,12.57,12.57,0,0,0-17.67,0"/><path class="cls-5" d="M46.08,37.7l4,4a.57.57,0,0,1-.81.81l-4-4a.57.57,0,0,1,.8-.8Z"/><path class="cls-5" d="M22.79,16l1.61,1.61-1.61,1.61a.57.57,0,0,0,0,.8.58.58,0,0,0,.81,0l1.6-1.61L26.81,20a.57.57,0,1,0,.8-.8L26,17.62,27.61,16a.57.57,0,1,0-.8-.8L25.2,16.82l-1.6-1.61a.58.58,0,0,0-.81,0A.57.57,0,0,0,22.79,16Z"/></g></g></g></svg>