<svg xmlns="http://www.w3.org/2000/svg" viewBox="0 0 17.5 17.51"><defs><style>.cls-1{fill:#666;}</style></defs><title>Ativo 4</title><g id="Camada_2" data-name="Camada 2"><g id="Camada_1-2" data-name="Camada 1"><path class="cls-1" d="M14.09,5.88v5.75c-.29.81-.69,1.14-1.4,1.14H4.81a1.32,1.32,0,0,1-1.19-.62,4.77,4.77,0,0,1-.22-.52V5.88c.3-.8.7-1.13,1.41-1.13h7.88a1.31,1.31,0,0,1,1.18.62A2.91,2.91,0,0,1,14.09,5.88ZM7.45,8.75,4.53,12.07H13L10.05,8.74l-1,.86c-.24.2-.36.2-.6,0ZM8.75,9,12.9,5.43H4.6Zm1.8-.68,2.86,3.26V5.87Zm-3.61,0L4.09,5.87v5.71Z"/><path class="cls-1" d="M8.78,0A8.76,8.76,0,1,0,17.5,8.76,8.76,8.76,0,0,0,8.78,0Zm0,16.22a7.47,7.47,0,1,1,7.46-7.46A7.46,7.46,0,0,1,8.75,16.22Z"/></g></g></svg>