<svg xmlns="http://www.w3.org/2000/svg" viewBox="0 0 95.78 59"><defs><style>.cls-1{fill:#2ab540;}.cls-1,.cls-2{fill-rule:evenodd;}.cls-2{fill:#fff;}</style></defs><title>whatsapp-btn</title><g id="Camada_2" data-name="Camada 2"><g id="Camada_1-2" data-name="Camada 1"><path class="cls-1" d="M0,0H66.28a29.5,29.5,0,0,1,29.5,29.5h0A29.5,29.5,0,0,1,66.28,59H0"/><path class="cls-2" d="M44.17,48.34c.1-.59.18-1.12.27-1.65.38-2.28.76-4.57,1.15-6.85a4.22,4.22,0,0,1,.1-.62A1.56,1.56,0,0,0,45.5,38a17.57,17.57,0,0,1-1.88-6.87A18.24,18.24,0,0,1,55.94,12.55a18.11,18.11,0,0,1,7.55-.88A18.32,18.32,0,0,1,77.2,20.06a17.53,17.53,0,0,1,2.58,6.81A18.26,18.26,0,0,1,68.54,46.75,17.76,17.76,0,0,1,60.1,48a18,18,0,0,1-6-1.6.81.81,0,0,0-.51,0l-9,2A3.23,3.23,0,0,1,44.17,48.34Zm3.74-3.93h.2l6-1.42a.73.73,0,0,1,.46.06,15.62,15.62,0,0,0,5.81,1.76,15,15,0,0,0,7-1,15,15,0,0,0,1.18-27.45,14.8,14.8,0,0,0-8.25-1.52,14.63,14.63,0,0,0-5.37,1.59,15,15,0,0,0-6.34,6.22,14.82,14.82,0,0,0-1.67,9.28,15,15,0,0,0,2,5.72.91.91,0,0,1,.1.56c-.28,1.6-.58,3.19-.87,4.79C48.08,43.46,48,43.93,47.91,44.41Z"/><path class="cls-1" d="M47.91,44.41c.09-.48.17-.95.25-1.41.29-1.6.59-3.19.87-4.79a.91.91,0,0,0-.1-.56,15,15,0,0,1-2-5.72,14.82,14.82,0,0,1,1.67-9.28,15,15,0,0,1,6.34-6.22,14.63,14.63,0,0,1,5.37-1.59A15.05,15.05,0,0,1,76.85,30a15.13,15.13,0,0,1-9.5,13.84,15,15,0,0,1-7,1A15.62,15.62,0,0,1,54.58,43a.73.73,0,0,0-.46-.06l-6,1.42ZM55.85,21a1.81,1.81,0,0,0-1.42.38,5.23,5.23,0,0,0-1.67,2.53,6.2,6.2,0,0,0,.59,4.62,21.85,21.85,0,0,0,2.65,4A18,18,0,0,0,59.66,36a16.19,16.19,0,0,0,3.89,1.92,7.55,7.55,0,0,0,3.63.65,4.48,4.48,0,0,0,3-1.69,3.71,3.71,0,0,0,.63-2.24.56.56,0,0,0-.33-.58c-1.23-.64-2.46-1.3-3.71-1.92-.44-.23-.71-.12-1,.27s-.89,1.06-1.35,1.58a.73.73,0,0,1-1,.24,12.46,12.46,0,0,1-6.11-5.68.6.6,0,0,1,.14-.82,6.6,6.6,0,0,0,1.25-1.57.89.89,0,0,0,.06-.73c-.43-1.15-.87-2.29-1.29-3.44A1.27,1.27,0,0,0,56,21,.47.47,0,0,1,55.85,21Z"/><path class="cls-2" d="M55.85,21A.47.47,0,0,0,56,21a1.27,1.27,0,0,1,1.43,1c.42,1.15.86,2.29,1.29,3.44a.89.89,0,0,1-.06.73,6.6,6.6,0,0,1-1.25,1.57.6.6,0,0,0-.14.82,12.46,12.46,0,0,0,6.11,5.68.73.73,0,0,0,1-.24c.46-.52.91-1,1.35-1.58s.6-.5,1-.27c1.25.62,2.48,1.28,3.71,1.92a.56.56,0,0,1,.33.58,3.71,3.71,0,0,1-.63,2.24,4.48,4.48,0,0,1-3,1.69,7.55,7.55,0,0,1-3.63-.65A16.19,16.19,0,0,1,59.66,36,18,18,0,0,1,56,32.54a21.85,21.85,0,0,1-2.65-4,6.2,6.2,0,0,1-.59-4.62,5.23,5.23,0,0,1,1.67-2.53A1.81,1.81,0,0,1,55.85,21Z"/></g></g></svg>